<svg xmlns="http://www.w3.org/2000/svg" version="1.1" xmlns:xlink="http://www.w3.org/1999/xlink" xmlns:svgjs="http://svgjs.com/svgjs" width="1440" height="560" preserveAspectRatio="none" viewBox="0 0 1440 560"><g mask="url(&quot;#SvgjsMask1000&quot;)" fill="none"><rect width="1440" height="560" x="0" y="0" fill="#1e3266"></rect><path d="M1488 560L0 560 L0 331.33Q23.64 282.97, 72 306.6Q122.94 237.55, 192 288.49Q295.78 272.27, 312 376.06Q355.3 299.36, 432 342.65Q479.64 270.29, 552 317.93Q631.31 277.24, 672 356.55Q699.54 312.09, 744 339.63Q795.93 319.56, 816 371.5Q818.98 302.48, 888 305.46Q913.7 259.15, 960 284.85Q1018.35 271.2, 1032 329.54Q1058.69 284.23, 1104 310.92Q1149.05 235.97, 1224 281.02Q1265.35 250.37, 1296 291.72Q1370.16 245.88, 1416 320.05Q1471.28 303.33, 1488 358.61z" fill="rgba(197, 217, 255, 1)"></path><path d="M1464 560L0 560 L0 394.91Q58.76 381.68, 72 440.44Q94.86 391.3, 144 414.16Q170.56 368.73, 216 395.29Q268.87 328.16, 336 381.03Q380.92 305.95, 456 350.87Q515.29 338.16, 528 397.45Q601.29 350.74, 648 424.02Q718.67 374.69, 768 445.36Q768.68 374.04, 840 374.72Q905.3 320.02, 960 385.32Q1025.92 331.24, 1080 397.16Q1147.6 344.75, 1200 412.35Q1223.3 363.65, 1272 386.95Q1326.73 369.69, 1344 424.42Q1369.21 329.63, 1464 354.84z" fill="rgba(156, 224, 255, 1)"></path><path d="M1512 560L0 560 L0 430.49Q76.08 434.57, 72 510.65Q62.86 429.51, 144 420.37Q243.59 399.96, 264 499.54Q286.51 450.06, 336 472.57Q361.85 426.42, 408 452.27Q431.17 403.44, 480 426.61Q536.99 411.6, 552 468.58Q603.19 447.77, 624 498.96Q663.17 418.13, 744 457.3Q768.26 409.56, 816 433.82Q882.7 380.52, 936 447.23Q1000.57 439.8, 1008 504.36Q1050.44 426.8, 1128 469.24Q1151.12 420.36, 1200 443.47Q1292.19 415.67, 1320 507.86Q1354.04 421.9, 1440 455.95Q1488.83 432.78, 1512 481.61z" fill="rgba(255, 255, 255, 1)"></path><path d="M1488 560L0 560 L0 586.95Q50.61 517.56, 120 568.16Q120.92 497.08, 192 498Q280.78 466.78, 312 555.56Q356.1 479.66, 432 523.76Q477.68 449.44, 552 495.12Q609.14 480.26, 624 537.4Q674.1 515.5, 696 565.6Q723.37 472.97, 816 500.34Q898.59 462.93, 936 545.52Q960.98 498.5, 1008 523.48Q1035.25 478.74, 1080 505.99Q1168.94 474.93, 1200 563.87Q1246.02 537.89, 1272 583.92Q1291.62 531.53, 1344 551.15Q1387.38 522.53, 1416 565.91Q1425.83 503.74, 1488 513.57z" fill="white"></path></g><defs><mask id="SvgjsMask1000"><rect width="1440" height="560" fill="#ffffff"></rect></mask></defs></svg>