<svg id="visual" viewBox="0 0 900 600" width="900" height="600" xmlns="http://www.w3.org/2000/svg" xmlns:xlink="http://www.w3.org/1999/xlink" version="1.1"><g stroke-width="1" stroke-linejoin="bevel"><path d="M485 300L431 332.9L493 338.9Z" fill="#b8b8b8" stroke="#b8b8b8"></path><path d="M431 332.9L491 348.7L493 338.9Z" fill="#cfcfcf" stroke="#cfcfcf"></path><path d="M431 332.9L443 377.4L491 348.7Z" fill="#e6e6e6" stroke="#e6e6e6"></path><path d="M491 348.7L517 366.9L493 338.9Z" fill="#b8b8b8" stroke="#b8b8b8"></path><path d="M493 338.9L571 284.3L485 300Z" fill="#a2a2a2" stroke="#a2a2a2"></path><path d="M470 405.9L517 366.9L491 348.7Z" fill="#fdfdfd" stroke="#fdfdfd"></path><path d="M470 405.9L524 370.7L517 366.9Z" fill="#515151" stroke="#515151"></path><path d="M517 366.9L533 358.6L493 338.9Z" fill="#8d8d8d" stroke="#8d8d8d"></path><path d="M524 370.7L533 358.6L517 366.9Z" fill="#8d8d8d" stroke="#8d8d8d"></path><path d="M443 377.4L470 405.9L491 348.7Z" fill="#cfcfcf" stroke="#cfcfcf"></path><path d="M450 401.7L470 405.9L443 377.4Z" fill="#646464" stroke="#646464"></path><path d="M427 248L381 320L431 332.9Z" fill="#787878" stroke="#787878"></path><path d="M431 332.9L359 386.4L443 377.4Z" fill="#3e3e3e" stroke="#3e3e3e"></path><path d="M443 377.4L434 405.7L450 401.7Z" fill="#646464" stroke="#646464"></path><path d="M485 300L427 248L431 332.9Z" fill="#fdfdfd" stroke="#fdfdfd"></path><path d="M561 438.7L537 367L524 370.7Z" fill="#2c2c2c" stroke="#2c2c2c"></path><path d="M524 370.7L537 367L533 358.6Z" fill="#e6e6e6" stroke="#e6e6e6"></path><path d="M359 386.4L434 405.7L443 377.4Z" fill="#e6e6e6" stroke="#e6e6e6"></path><path d="M446 449.4L485 434.4L470 405.9Z" fill="#b8b8b8" stroke="#b8b8b8"></path><path d="M427 248L401 246.3L381 320Z" fill="#e6e6e6" stroke="#e6e6e6"></path><path d="M446 449.4L470 405.9L450 401.7Z" fill="#cfcfcf" stroke="#cfcfcf"></path><path d="M470 405.9L485 434.4L524 370.7Z" fill="#a2a2a2" stroke="#a2a2a2"></path><path d="M580 325L571 284.3L533 358.6Z" fill="#646464" stroke="#646464"></path><path d="M533 358.6L571 284.3L493 338.9Z" fill="#515151" stroke="#515151"></path><path d="M485 300L497 185.3L427 248Z" fill="#fdfdfd" stroke="#fdfdfd"></path><path d="M584 423.7L580 325L537 367Z" fill="#b8b8b8" stroke="#b8b8b8"></path><path d="M537 367L580 325L533 358.6Z" fill="#3e3e3e" stroke="#3e3e3e"></path><path d="M340 345.7L359 386.4L381 320Z" fill="#515151" stroke="#515151"></path><path d="M381 320L359 386.4L431 332.9Z" fill="#8d8d8d" stroke="#8d8d8d"></path><path d="M434 405.7L446 449.4L450 401.7Z" fill="#787878" stroke="#787878"></path><path d="M401 246.3L359 260.9L381 320Z" fill="#fdfdfd" stroke="#fdfdfd"></path><path d="M359 260.9L340 345.7L381 320Z" fill="#3e3e3e" stroke="#3e3e3e"></path><path d="M426 456.3L446 449.4L434 405.7Z" fill="#646464" stroke="#646464"></path><path d="M446 449.4L490 450.6L485 434.4Z" fill="#2c2c2c" stroke="#2c2c2c"></path><path d="M485 434.4L561 438.7L524 370.7Z" fill="#8d8d8d" stroke="#8d8d8d"></path><path d="M427 248L395 210.1L401 246.3Z" fill="#515151" stroke="#515151"></path><path d="M401 246.3L377 208L359 260.9Z" fill="#fdfdfd" stroke="#fdfdfd"></path><path d="M465 168.1L395 210.1L427 248Z" fill="#8d8d8d" stroke="#8d8d8d"></path><path d="M598 274.9L588 271L571 284.3Z" fill="#2c2c2c" stroke="#2c2c2c"></path><path d="M573 219.6L497 185.3L485 300Z" fill="#787878" stroke="#787878"></path><path d="M386 465.7L426 456.3L434 405.7Z" fill="#fdfdfd" stroke="#fdfdfd"></path><path d="M446 449.4L500 490.4L490 450.6Z" fill="#cfcfcf" stroke="#cfcfcf"></path><path d="M573 219.6L485 300L571 284.3Z" fill="#3e3e3e" stroke="#3e3e3e"></path><path d="M580 325L598 274.9L571 284.3Z" fill="#fdfdfd" stroke="#fdfdfd"></path><path d="M588 271L573 219.6L571 284.3Z" fill="#646464" stroke="#646464"></path><path d="M376 202.3L377 208L395 210.1Z" fill="#8d8d8d" stroke="#8d8d8d"></path><path d="M395 210.1L377 208L401 246.3Z" fill="#fdfdfd" stroke="#fdfdfd"></path><path d="M490 450.6L561 438.7L485 434.4Z" fill="#fdfdfd" stroke="#fdfdfd"></path><path d="M580 325L678 326.1L598 274.9Z" fill="#8d8d8d" stroke="#8d8d8d"></path><path d="M436 155.7L376 202.3L395 210.1Z" fill="#515151" stroke="#515151"></path><path d="M377 208L324 235L359 260.9Z" fill="#787878" stroke="#787878"></path><path d="M600 256.1L573 219.6L588 271Z" fill="#b8b8b8" stroke="#b8b8b8"></path><path d="M598 274.9L600 256.1L588 271Z" fill="#3e3e3e" stroke="#3e3e3e"></path><path d="M306 271.3L310 337.6L340 345.7Z" fill="#e6e6e6" stroke="#e6e6e6"></path><path d="M340 345.7L314 385L359 386.4Z" fill="#515151" stroke="#515151"></path><path d="M359 386.4L386 465.7L434 405.7Z" fill="#3e3e3e" stroke="#3e3e3e"></path><path d="M301 333.6L310 337.6L288 298.3Z" fill="#515151" stroke="#515151"></path><path d="M561 438.7L571 434.4L537 367Z" fill="#515151" stroke="#515151"></path><path d="M571 434.4L584 423.7L537 367Z" fill="#8d8d8d" stroke="#8d8d8d"></path><path d="M598 274.9L646 226L600 256.1Z" fill="#787878" stroke="#787878"></path><path d="M521 154.4L465 168.1L497 185.3Z" fill="#2c2c2c" stroke="#2c2c2c"></path><path d="M497 185.3L465 168.1L427 248Z" fill="#b8b8b8" stroke="#b8b8b8"></path><path d="M327 456.4L386 465.7L359 386.4Z" fill="#b8b8b8" stroke="#b8b8b8"></path><path d="M445 521.6L500 490.4L446 449.4Z" fill="#cfcfcf" stroke="#cfcfcf"></path><path d="M310 337.6L314 385L340 345.7Z" fill="#787878" stroke="#787878"></path><path d="M306 271.3L340 345.7L359 260.9Z" fill="#787878" stroke="#787878"></path><path d="M310 337.6L301 333.6L314 385Z" fill="#515151" stroke="#515151"></path><path d="M327 203L324 235L377 208Z" fill="#646464" stroke="#646464"></path><path d="M324 235L306 271.3L359 260.9Z" fill="#8d8d8d" stroke="#8d8d8d"></path><path d="M506 500.3L500 490.4L445 521.6Z" fill="#3e3e3e" stroke="#3e3e3e"></path><path d="M490 450.6L500 490.4L561 438.7Z" fill="#cfcfcf" stroke="#cfcfcf"></path><path d="M561 438.7L587 457.6L571 434.4Z" fill="#8d8d8d" stroke="#8d8d8d"></path><path d="M465 168.1L436 155.7L395 210.1Z" fill="#fdfdfd" stroke="#fdfdfd"></path><path d="M376 202.3L327 203L377 208Z" fill="#787878" stroke="#787878"></path><path d="M282 291.7L288 298.3L306 271.3Z" fill="#2c2c2c" stroke="#2c2c2c"></path><path d="M306 271.3L288 298.3L310 337.6Z" fill="#e6e6e6" stroke="#e6e6e6"></path><path d="M301 333.6L302 399.9L314 385Z" fill="#646464" stroke="#646464"></path><path d="M271 417.9L302 399.9L301 333.6Z" fill="#a2a2a2" stroke="#a2a2a2"></path><path d="M314 385L302 399.9L359 386.4Z" fill="#646464" stroke="#646464"></path><path d="M573 219.6L521 154.4L497 185.3Z" fill="#a2a2a2" stroke="#a2a2a2"></path><path d="M465 168.1L443 114.3L436 155.7Z" fill="#515151" stroke="#515151"></path><path d="M445 521.6L446 449.4L426 456.3Z" fill="#515151" stroke="#515151"></path><path d="M500 490.4L506 500.3L561 438.7Z" fill="#b8b8b8" stroke="#b8b8b8"></path><path d="M571 434.4L587 457.6L584 423.7Z" fill="#3e3e3e" stroke="#3e3e3e"></path><path d="M585 464.1L587 457.6L561 438.7Z" fill="#cfcfcf" stroke="#cfcfcf"></path><path d="M584 423.7L635 403.6L580 325Z" fill="#787878" stroke="#787878"></path><path d="M325 170.1L327 203L330 164.1Z" fill="#cfcfcf" stroke="#cfcfcf"></path><path d="M272 293.1L282 291.7L258 278.1Z" fill="#e6e6e6" stroke="#e6e6e6"></path><path d="M282 291.7L306 271.3L258 278.1Z" fill="#515151" stroke="#515151"></path><path d="M288 298.3L272 293.1L301 333.6Z" fill="#b8b8b8" stroke="#b8b8b8"></path><path d="M560 517.3L585 464.1L561 438.7Z" fill="#fdfdfd" stroke="#fdfdfd"></path><path d="M687 470.6L635 403.6L587 457.6Z" fill="#787878" stroke="#787878"></path><path d="M587 457.6L635 403.6L584 423.7Z" fill="#646464" stroke="#646464"></path><path d="M318 452.6L327 456.4L359 386.4Z" fill="#646464" stroke="#646464"></path><path d="M386 465.7L445 521.6L426 456.3Z" fill="#8d8d8d" stroke="#8d8d8d"></path><path d="M302 399.9L318 452.6L359 386.4Z" fill="#3e3e3e" stroke="#3e3e3e"></path><path d="M258 278.1L306 271.3L241 219.3Z" fill="#2c2c2c" stroke="#2c2c2c"></path><path d="M282 291.7L272 293.1L288 298.3Z" fill="#a2a2a2" stroke="#a2a2a2"></path><path d="M430 546.1L386 465.7L353 548.1Z" fill="#b8b8b8" stroke="#b8b8b8"></path><path d="M430 546.1L445 521.6L386 465.7Z" fill="#a2a2a2" stroke="#a2a2a2"></path><path d="M330 164.1L327 203L376 202.3Z" fill="#8d8d8d" stroke="#8d8d8d"></path><path d="M241 219.3L306 271.3L324 235Z" fill="#3e3e3e" stroke="#3e3e3e"></path><path d="M689 317.1L646 226L598 274.9Z" fill="#646464" stroke="#646464"></path><path d="M600 256.1L646 226L573 219.6Z" fill="#2c2c2c" stroke="#2c2c2c"></path><path d="M573 219.6L586 156.6L521 154.4Z" fill="#787878" stroke="#787878"></path><path d="M596 151.7L586 156.6L620 171.7Z" fill="#787878" stroke="#787878"></path><path d="M399 125.4L330 164.1L376 202.3Z" fill="#b8b8b8" stroke="#b8b8b8"></path><path d="M443 114.3L399 125.4L436 155.7Z" fill="#515151" stroke="#515151"></path><path d="M436 155.7L399 125.4L376 202.3Z" fill="#787878" stroke="#787878"></path><path d="M443 114.3L465 168.1L496 103.4Z" fill="#a2a2a2" stroke="#a2a2a2"></path><path d="M266 183.7L324 235L327 203Z" fill="#fdfdfd" stroke="#fdfdfd"></path><path d="M230 325.1L271 417.9L301 333.6Z" fill="#a2a2a2" stroke="#a2a2a2"></path><path d="M302 399.9L271 417.9L318 452.6Z" fill="#fdfdfd" stroke="#fdfdfd"></path><path d="M496 103.4L465 168.1L521 154.4Z" fill="#2c2c2c" stroke="#2c2c2c"></path><path d="M574 134.6L542 127.6L521 154.4Z" fill="#8d8d8d" stroke="#8d8d8d"></path><path d="M230 325.1L301 333.6L272 293.1Z" fill="#787878" stroke="#787878"></path><path d="M682 353.9L678 326.1L580 325Z" fill="#646464" stroke="#646464"></path><path d="M506 500.3L560 517.3L561 438.7Z" fill="#fdfdfd" stroke="#fdfdfd"></path><path d="M673 497.6L687 470.6L587 457.6Z" fill="#515151" stroke="#515151"></path><path d="M512 571.3L560 517.3L506 500.3Z" fill="#515151" stroke="#515151"></path><path d="M620 171.7L586 156.6L573 219.6Z" fill="#b8b8b8" stroke="#b8b8b8"></path><path d="M586 156.6L574 134.6L521 154.4Z" fill="#a2a2a2" stroke="#a2a2a2"></path><path d="M646 226L620 171.7L573 219.6Z" fill="#3e3e3e" stroke="#3e3e3e"></path><path d="M596 151.7L574 134.6L586 156.6Z" fill="#fdfdfd" stroke="#fdfdfd"></path><path d="M635 403.6L682 353.9L580 325Z" fill="#646464" stroke="#646464"></path><path d="M700 376.6L682 353.9L635 403.6Z" fill="#646464" stroke="#646464"></path><path d="M544 102.4L496 103.4L542 127.6Z" fill="#a2a2a2" stroke="#a2a2a2"></path><path d="M542 127.6L496 103.4L521 154.4Z" fill="#e6e6e6" stroke="#e6e6e6"></path><path d="M327 515.4L327 456.4L318 452.6Z" fill="#fdfdfd" stroke="#fdfdfd"></path><path d="M327 515.4L386 465.7L327 456.4Z" fill="#cfcfcf" stroke="#cfcfcf"></path><path d="M445 521.6L475 559.1L506 500.3Z" fill="#787878" stroke="#787878"></path><path d="M682 353.9L689 317.1L678 326.1Z" fill="#a2a2a2" stroke="#a2a2a2"></path><path d="M678 326.1L689 317.1L598 274.9Z" fill="#646464" stroke="#646464"></path><path d="M583 544.4L591 511.6L560 517.3Z" fill="#515151" stroke="#515151"></path><path d="M560 517.3L591 511.6L585 464.1Z" fill="#fdfdfd" stroke="#fdfdfd"></path><path d="M696 221.1L663 211.6L646 226Z" fill="#a2a2a2" stroke="#a2a2a2"></path><path d="M646 226L632 167.3L620 171.7Z" fill="#2c2c2c" stroke="#2c2c2c"></path><path d="M267 159.6L270 165.4L291 129.6Z" fill="#2c2c2c" stroke="#2c2c2c"></path><path d="M325 170.1L266 183.7L327 203Z" fill="#cfcfcf" stroke="#cfcfcf"></path><path d="M399 125.4L337 131.6L330 164.1Z" fill="#3e3e3e" stroke="#3e3e3e"></path><path d="M353 111.6L337 131.6L399 125.4Z" fill="#cfcfcf" stroke="#cfcfcf"></path><path d="M458 92.4L399 125.4L443 114.3Z" fill="#2c2c2c" stroke="#2c2c2c"></path><path d="M596 151.7L576 78.7L574 134.6Z" fill="#e6e6e6" stroke="#e6e6e6"></path><path d="M620 171.7L632 167.3L596 151.7Z" fill="#8d8d8d" stroke="#8d8d8d"></path><path d="M663 211.6L632 167.3L646 226Z" fill="#646464" stroke="#646464"></path><path d="M496 103.4L458 92.4L443 114.3Z" fill="#fdfdfd" stroke="#fdfdfd"></path><path d="M217 238.1L230 325.1L258 278.1Z" fill="#a2a2a2" stroke="#a2a2a2"></path><path d="M258 278.1L230 325.1L272 293.1Z" fill="#e6e6e6" stroke="#e6e6e6"></path><path d="M274 515.6L327 515.4L318 452.6Z" fill="#fdfdfd" stroke="#fdfdfd"></path><path d="M430 546.1L475 559.1L445 521.6Z" fill="#cfcfcf" stroke="#cfcfcf"></path><path d="M574 134.6L544 102.4L542 127.6Z" fill="#515151" stroke="#515151"></path><path d="M496 103.4L499 53.6L458 92.4Z" fill="#2c2c2c" stroke="#2c2c2c"></path><path d="M576 78.7L544 102.4L574 134.6Z" fill="#b8b8b8" stroke="#b8b8b8"></path><path d="M383 21.7L353 111.6L399 125.4Z" fill="#3e3e3e" stroke="#3e3e3e"></path><path d="M325 170.1L291 129.6L270 165.4Z" fill="#cfcfcf" stroke="#cfcfcf"></path><path d="M270 165.4L266 183.7L325 170.1Z" fill="#2c2c2c" stroke="#2c2c2c"></path><path d="M718 408.4L700 376.6L635 403.6Z" fill="#fdfdfd" stroke="#fdfdfd"></path><path d="M682 353.9L728 348.9L689 317.1Z" fill="#cfcfcf" stroke="#cfcfcf"></path><path d="M266 183.7L241 219.3L324 235Z" fill="#646464" stroke="#646464"></path><path d="M302 101.9L334 112.7L286 77.9Z" fill="#fdfdfd" stroke="#fdfdfd"></path><path d="M353 111.6L334 112.7L337 131.6Z" fill="#2c2c2c" stroke="#2c2c2c"></path><path d="M480 600L494 571.1L475 559.1Z" fill="#2c2c2c" stroke="#2c2c2c"></path><path d="M475 559.1L494 571.1L506 500.3Z" fill="#cfcfcf" stroke="#cfcfcf"></path><path d="M460 600L475 559.1L430 546.1Z" fill="#cfcfcf" stroke="#cfcfcf"></path><path d="M327 515.4L353 548.1L386 465.7Z" fill="#e6e6e6" stroke="#e6e6e6"></path><path d="M691 204.3L659 170.3L663 211.6Z" fill="#646464" stroke="#646464"></path><path d="M663 211.6L659 170.3L632 167.3Z" fill="#a2a2a2" stroke="#a2a2a2"></path><path d="M632 167.3L660 152.4L596 151.7Z" fill="#e6e6e6" stroke="#e6e6e6"></path><path d="M512 571.3L583 544.4L560 517.3Z" fill="#8d8d8d" stroke="#8d8d8d"></path><path d="M673 497.6L587 457.6L585 464.1Z" fill="#646464" stroke="#646464"></path><path d="M325 170.1L330 164.1L291 129.6Z" fill="#787878" stroke="#787878"></path><path d="M266 183.7L193 195.6L241 219.3Z" fill="#515151" stroke="#515151"></path><path d="M494 571.1L512 571.3L506 500.3Z" fill="#2c2c2c" stroke="#2c2c2c"></path><path d="M230 325.1L225 408.9L271 417.9Z" fill="#2c2c2c" stroke="#2c2c2c"></path><path d="M271 417.9L274 515.6L318 452.6Z" fill="#fdfdfd" stroke="#fdfdfd"></path><path d="M327 515.4L313 575.3L353 548.1Z" fill="#b8b8b8" stroke="#b8b8b8"></path><path d="M689 317.1L696 221.1L646 226Z" fill="#b8b8b8" stroke="#b8b8b8"></path><path d="M727 226L696 221.1L689 317.1Z" fill="#2c2c2c" stroke="#2c2c2c"></path><path d="M291 129.6L330 164.1L337 131.6Z" fill="#a2a2a2" stroke="#a2a2a2"></path><path d="M270 165.4L267 159.6L266 183.7Z" fill="#8d8d8d" stroke="#8d8d8d"></path><path d="M696 221.1L691 204.3L663 211.6Z" fill="#8d8d8d" stroke="#8d8d8d"></path><path d="M334 112.7L291 129.6L337 131.6Z" fill="#3e3e3e" stroke="#3e3e3e"></path><path d="M186 240.3L217 238.1L193 195.6Z" fill="#3e3e3e" stroke="#3e3e3e"></path><path d="M241 219.3L217 238.1L258 278.1Z" fill="#2c2c2c" stroke="#2c2c2c"></path><path d="M118 395.9L189 462.7L225 408.9Z" fill="#787878" stroke="#787878"></path><path d="M689 165.6L660 152.4L659 170.3Z" fill="#cfcfcf" stroke="#cfcfcf"></path><path d="M659 170.3L660 152.4L632 167.3Z" fill="#787878" stroke="#787878"></path><path d="M718 408.4L728 348.9L700 376.6Z" fill="#a2a2a2" stroke="#a2a2a2"></path><path d="M700 376.6L728 348.9L682 353.9Z" fill="#a2a2a2" stroke="#a2a2a2"></path><path d="M673 497.6L585 464.1L591 511.6Z" fill="#787878" stroke="#787878"></path><path d="M687 470.6L718 408.4L635 403.6Z" fill="#2c2c2c" stroke="#2c2c2c"></path><path d="M217 463.4L274 515.6L271 417.9Z" fill="#646464" stroke="#646464"></path><path d="M662 75.7L576 78.7L596 151.7Z" fill="#3e3e3e" stroke="#3e3e3e"></path><path d="M544 102.4L499 53.6L496 103.4Z" fill="#646464" stroke="#646464"></path><path d="M630 558.3L673 497.6L591 511.6Z" fill="#2c2c2c" stroke="#2c2c2c"></path><path d="M576 78.7L499 53.6L544 102.4Z" fill="#515151" stroke="#515151"></path><path d="M458 92.4L383 21.7L399 125.4Z" fill="#515151" stroke="#515151"></path><path d="M291 129.6L271 112.4L267 159.6Z" fill="#b8b8b8" stroke="#b8b8b8"></path><path d="M193 195.6L217 238.1L241 219.3Z" fill="#3e3e3e" stroke="#3e3e3e"></path><path d="M334 112.7L302 101.9L291 129.6Z" fill="#cfcfcf" stroke="#cfcfcf"></path><path d="M286 77.9L334 112.7L383 21.7Z" fill="#646464" stroke="#646464"></path><path d="M392 600L430 546.1L353 548.1Z" fill="#2c2c2c" stroke="#2c2c2c"></path><path d="M392 600L460 600L430 546.1Z" fill="#b8b8b8" stroke="#b8b8b8"></path><path d="M494 571.1L480 600L512 571.3Z" fill="#3e3e3e" stroke="#3e3e3e"></path><path d="M512 571.3L537 594.1L583 544.4Z" fill="#cfcfcf" stroke="#cfcfcf"></path><path d="M460 600L480 600L475 559.1Z" fill="#646464" stroke="#646464"></path><path d="M583 544.4L630 558.3L591 511.6Z" fill="#a2a2a2" stroke="#a2a2a2"></path><path d="M719 180.1L689 165.6L691 204.3Z" fill="#e6e6e6" stroke="#e6e6e6"></path><path d="M691 204.3L689 165.6L659 170.3Z" fill="#787878" stroke="#787878"></path><path d="M660 152.4L662 75.7L596 151.7Z" fill="#b8b8b8" stroke="#b8b8b8"></path><path d="M727 226L691 204.3L696 221.1Z" fill="#515151" stroke="#515151"></path><path d="M481 606.3L537 594.1L512 571.3Z" fill="#787878" stroke="#787878"></path><path d="M787 265.4L727 226L689 317.1Z" fill="#fdfdfd" stroke="#fdfdfd"></path><path d="M460 600L481 606.3L480 600Z" fill="#cfcfcf" stroke="#cfcfcf"></path><path d="M480 600L481 606.3L512 571.3Z" fill="#fdfdfd" stroke="#fdfdfd"></path><path d="M189 462.7L217 463.4L225 408.9Z" fill="#8d8d8d" stroke="#8d8d8d"></path><path d="M225 408.9L217 463.4L271 417.9Z" fill="#cfcfcf" stroke="#cfcfcf"></path><path d="M576 78.7L501 44.9L499 53.6Z" fill="#cfcfcf" stroke="#cfcfcf"></path><path d="M499 53.6L464 4.9L458 92.4Z" fill="#8d8d8d" stroke="#8d8d8d"></path><path d="M373 600L392 600L353 548.1Z" fill="#646464" stroke="#646464"></path><path d="M460 600L414 644.1L481 606.3Z" fill="#e6e6e6" stroke="#e6e6e6"></path><path d="M713 143.4L680 138.9L689 165.6Z" fill="#3e3e3e" stroke="#3e3e3e"></path><path d="M689 165.6L680 138.9L660 152.4Z" fill="#515151" stroke="#515151"></path><path d="M302 101.9L271 112.4L291 129.6Z" fill="#515151" stroke="#515151"></path><path d="M599 600L630 558.3L583 544.4Z" fill="#b8b8b8" stroke="#b8b8b8"></path><path d="M351 596.3L373 600L353 548.1Z" fill="#515151" stroke="#515151"></path><path d="M392 600L414 644.1L460 600Z" fill="#a2a2a2" stroke="#a2a2a2"></path><path d="M193 195.6L266 183.7L267 159.6Z" fill="#787878" stroke="#787878"></path><path d="M217 238.1L186 240.3L230 325.1Z" fill="#e6e6e6" stroke="#e6e6e6"></path><path d="M317 600L313 575.3L268 600Z" fill="#fdfdfd" stroke="#fdfdfd"></path><path d="M274 515.6L313 575.3L327 515.4Z" fill="#515151" stroke="#515151"></path><path d="M313 575.3L351 596.3L353 548.1Z" fill="#b8b8b8" stroke="#b8b8b8"></path><path d="M753 441.9L738 428.3L687 470.6Z" fill="#2c2c2c" stroke="#2c2c2c"></path><path d="M687 470.6L738 428.3L718 408.4Z" fill="#646464" stroke="#646464"></path><path d="M718 408.4L761 353.7L728 348.9Z" fill="#e6e6e6" stroke="#e6e6e6"></path><path d="M728 348.9L767 329.7L689 317.1Z" fill="#515151" stroke="#515151"></path><path d="M682 536.4L687 470.6L673 497.6Z" fill="#e6e6e6" stroke="#e6e6e6"></path><path d="M727 226L719 180.1L691 204.3Z" fill="#3e3e3e" stroke="#3e3e3e"></path><path d="M782 365L761 353.7L718 408.4Z" fill="#3e3e3e" stroke="#3e3e3e"></path><path d="M727 226L804 219.6L719 180.1Z" fill="#787878" stroke="#787878"></path><path d="M197 138.4L193 195.6L267 159.6Z" fill="#fdfdfd" stroke="#fdfdfd"></path><path d="M302 101.9L286 77.9L271 112.4Z" fill="#2c2c2c" stroke="#2c2c2c"></path><path d="M164 193.6L164 200.1L193 195.6Z" fill="#8d8d8d" stroke="#8d8d8d"></path><path d="M383 21.7L334 112.7L353 111.6Z" fill="#3e3e3e" stroke="#3e3e3e"></path><path d="M761 353.7L767 329.7L728 348.9Z" fill="#646464" stroke="#646464"></path><path d="M630 558.3L682 536.4L673 497.6Z" fill="#b8b8b8" stroke="#b8b8b8"></path><path d="M132 343.7L225 408.9L230 325.1Z" fill="#a2a2a2" stroke="#a2a2a2"></path><path d="M217 463.4L244 549.4L274 515.6Z" fill="#646464" stroke="#646464"></path><path d="M602 603.1L599 600L537 594.1Z" fill="#646464" stroke="#646464"></path><path d="M537 594.1L599 600L583 544.4Z" fill="#646464" stroke="#646464"></path><path d="M630 558.3L665 580.1L682 536.4Z" fill="#cfcfcf" stroke="#cfcfcf"></path><path d="M189 462.7L192 469.6L217 463.4Z" fill="#515151" stroke="#515151"></path><path d="M803 161.7L713 143.4L719 180.1Z" fill="#646464" stroke="#646464"></path><path d="M719 180.1L713 143.4L689 165.6Z" fill="#2c2c2c" stroke="#2c2c2c"></path><path d="M680 138.9L662 75.7L660 152.4Z" fill="#b8b8b8" stroke="#b8b8b8"></path><path d="M329 605.3L355 616.1L351 596.3Z" fill="#fdfdfd" stroke="#fdfdfd"></path><path d="M351 596.3L355 616.1L373 600Z" fill="#2c2c2c" stroke="#2c2c2c"></path><path d="M373 600L355 616.1L392 600Z" fill="#b8b8b8" stroke="#b8b8b8"></path><path d="M602 603.1L608 600L599 600Z" fill="#b8b8b8" stroke="#b8b8b8"></path><path d="M329 605.3L351 596.3L313 575.3Z" fill="#646464" stroke="#646464"></path><path d="M317 600L329 605.3L313 575.3Z" fill="#8d8d8d" stroke="#8d8d8d"></path><path d="M602 603.1L537 594.1L481 606.3Z" fill="#cfcfcf" stroke="#cfcfcf"></path><path d="M599 600L608 600L630 558.3Z" fill="#2c2c2c" stroke="#2c2c2c"></path><path d="M414 644.1L602 603.1L481 606.3Z" fill="#3e3e3e" stroke="#3e3e3e"></path><path d="M244 549.4L313 575.3L274 515.6Z" fill="#e6e6e6" stroke="#e6e6e6"></path><path d="M794 481.6L753 441.9L687 470.6Z" fill="#646464" stroke="#646464"></path><path d="M738 428.3L782 365L718 408.4Z" fill="#cfcfcf" stroke="#cfcfcf"></path><path d="M761 353.7L781 344.1L767 329.7Z" fill="#2c2c2c" stroke="#2c2c2c"></path><path d="M417 0L383 21.7L458 92.4Z" fill="#fdfdfd" stroke="#fdfdfd"></path><path d="M192 469.6L244 549.4L217 463.4Z" fill="#787878" stroke="#787878"></path><path d="M782 365L781 344.1L761 353.7Z" fill="#2c2c2c" stroke="#2c2c2c"></path><path d="M767 329.7L787 265.4L689 317.1Z" fill="#3e3e3e" stroke="#3e3e3e"></path><path d="M701 82.4L662 75.7L680 138.9Z" fill="#515151" stroke="#515151"></path><path d="M492 0L464 4.9L501 44.9Z" fill="#515151" stroke="#515151"></path><path d="M501 44.9L464 4.9L499 53.6Z" fill="#b8b8b8" stroke="#b8b8b8"></path><path d="M492 0L501 44.9L507 0Z" fill="#515151" stroke="#515151"></path><path d="M781 344.1L783 331.9L767 329.7Z" fill="#e6e6e6" stroke="#e6e6e6"></path><path d="M753 441.9L782 365L738 428.3Z" fill="#3e3e3e" stroke="#3e3e3e"></path><path d="M781 344.1L808 321.9L783 331.9Z" fill="#b8b8b8" stroke="#b8b8b8"></path><path d="M808 321.9L785 320.9L783 331.9Z" fill="#b8b8b8" stroke="#b8b8b8"></path><path d="M783 331.9L785 320.9L767 329.7Z" fill="#cfcfcf" stroke="#cfcfcf"></path><path d="M251 608.3L414 644.1L355 616.1Z" fill="#e6e6e6" stroke="#e6e6e6"></path><path d="M355 616.1L414 644.1L392 600Z" fill="#fdfdfd" stroke="#fdfdfd"></path><path d="M251 608.3L355 616.1L329 605.3Z" fill="#8d8d8d" stroke="#8d8d8d"></path><path d="M193 195.6L164 200.1L186 240.3Z" fill="#515151" stroke="#515151"></path><path d="M128 304L132 343.7L230 325.1Z" fill="#fdfdfd" stroke="#fdfdfd"></path><path d="M197 138.4L267 159.6L271 112.4Z" fill="#b8b8b8" stroke="#b8b8b8"></path><path d="M187 115.6L197 138.4L271 112.4Z" fill="#2c2c2c" stroke="#2c2c2c"></path><path d="M608 600L665 580.1L630 558.3Z" fill="#a2a2a2" stroke="#a2a2a2"></path><path d="M682 536.4L794 481.6L687 470.6Z" fill="#e6e6e6" stroke="#e6e6e6"></path><path d="M667 600L665 580.1L608 600Z" fill="#3e3e3e" stroke="#3e3e3e"></path><path d="M507 0L501 44.9L518 0Z" fill="#e6e6e6" stroke="#e6e6e6"></path><path d="M182 153.3L164 193.6L193 195.6Z" fill="#fdfdfd" stroke="#fdfdfd"></path><path d="M518 0L501 44.9L525 0Z" fill="#cfcfcf" stroke="#cfcfcf"></path><path d="M464 4.9L417 0L458 92.4Z" fill="#8d8d8d" stroke="#8d8d8d"></path><path d="M229 28.7L271 112.4L286 77.9Z" fill="#2c2c2c" stroke="#2c2c2c"></path><path d="M439 -49.1L417 0L464 4.9Z" fill="#fdfdfd" stroke="#fdfdfd"></path><path d="M197 138.4L182 153.3L193 195.6Z" fill="#3e3e3e" stroke="#3e3e3e"></path><path d="M794 292L787 265.4L767 329.7Z" fill="#a2a2a2" stroke="#a2a2a2"></path><path d="M525 0L501 44.9L572 5.9Z" fill="#8d8d8d" stroke="#8d8d8d"></path><path d="M244 549.4L268 600L313 575.3Z" fill="#2c2c2c" stroke="#2c2c2c"></path><path d="M192 469.6L233 561.1L244 549.4Z" fill="#3e3e3e" stroke="#3e3e3e"></path><path d="M572 5.9L501 44.9L576 78.7Z" fill="#e6e6e6" stroke="#e6e6e6"></path><path d="M665 580.1L690 566.4L682 536.4Z" fill="#a2a2a2" stroke="#a2a2a2"></path><path d="M128 304L186 240.3L141 219Z" fill="#b8b8b8" stroke="#b8b8b8"></path><path d="M128 304L230 325.1L186 240.3Z" fill="#fdfdfd" stroke="#fdfdfd"></path><path d="M189 462.7L162 479.1L192 469.6Z" fill="#515151" stroke="#515151"></path><path d="M192 469.6L149 522.6L233 561.1Z" fill="#3e3e3e" stroke="#3e3e3e"></path><path d="M808 321.9L794 292L785 320.9Z" fill="#646464" stroke="#646464"></path><path d="M785 320.9L794 292L767 329.7Z" fill="#e6e6e6" stroke="#e6e6e6"></path><path d="M141 219L186 240.3L164 200.1Z" fill="#3e3e3e" stroke="#3e3e3e"></path><path d="M619 17.9L572 5.9L576 78.7Z" fill="#787878" stroke="#787878"></path><path d="M233 561.1L268 600L244 549.4Z" fill="#a2a2a2" stroke="#a2a2a2"></path><path d="M317 600L251 608.3L329 605.3Z" fill="#fdfdfd" stroke="#fdfdfd"></path><path d="M81 333.6L125 311.7L82 288.9Z" fill="#515151" stroke="#515151"></path><path d="M128 304L125 311.7L132 343.7Z" fill="#fdfdfd" stroke="#fdfdfd"></path><path d="M123 440.7L162 479.1L189 462.7Z" fill="#a2a2a2" stroke="#a2a2a2"></path><path d="M160 150.7L141 219L164 193.6Z" fill="#e6e6e6" stroke="#e6e6e6"></path><path d="M164 193.6L141 219L164 200.1Z" fill="#2c2c2c" stroke="#2c2c2c"></path><path d="M713 143.4L701 82.4L680 138.9Z" fill="#515151" stroke="#515151"></path><path d="M662 75.7L619 17.9L576 78.7Z" fill="#fdfdfd" stroke="#fdfdfd"></path><path d="M779 98.4L701 82.4L713 143.4Z" fill="#3e3e3e" stroke="#3e3e3e"></path><path d="M688 630.1L667 600L608 600Z" fill="#787878" stroke="#787878"></path><path d="M665 580.1L667 600L690 566.4Z" fill="#cfcfcf" stroke="#cfcfcf"></path><path d="M688 630.1L608 600L602 603.1Z" fill="#2c2c2c" stroke="#2c2c2c"></path><path d="M659 17.9L619 17.9L662 75.7Z" fill="#787878" stroke="#787878"></path><path d="M794 292L823 293L787 265.4Z" fill="#cfcfcf" stroke="#cfcfcf"></path><path d="M782 365L808 321.9L781 344.1Z" fill="#b8b8b8" stroke="#b8b8b8"></path><path d="M834 375.7L808 321.9L782 365Z" fill="#2c2c2c" stroke="#2c2c2c"></path><path d="M115 364L119 363.9L132 343.7Z" fill="#787878" stroke="#787878"></path><path d="M132 343.7L118 395.9L225 408.9Z" fill="#fdfdfd" stroke="#fdfdfd"></path><path d="M197 138.4L172 122.4L182 153.3Z" fill="#515151" stroke="#515151"></path><path d="M182 153.3L160 150.7L164 193.6Z" fill="#787878" stroke="#787878"></path><path d="M229 28.7L187 115.6L271 112.4Z" fill="#a2a2a2" stroke="#a2a2a2"></path><path d="M272 0L286 77.9L383 21.7Z" fill="#3e3e3e" stroke="#3e3e3e"></path><path d="M619 17.9L591 0L572 5.9Z" fill="#2c2c2c" stroke="#2c2c2c"></path><path d="M572 5.9L591 0L525 0Z" fill="#2c2c2c" stroke="#2c2c2c"></path><path d="M172 122.4L160 150.7L182 153.3Z" fill="#787878" stroke="#787878"></path><path d="M81 333.6L115 364L132 343.7Z" fill="#787878" stroke="#787878"></path><path d="M119 363.9L118 395.9L132 343.7Z" fill="#fdfdfd" stroke="#fdfdfd"></path><path d="M81 333.6L132 343.7L125 311.7Z" fill="#515151" stroke="#515151"></path><path d="M115 364L118 395.9L119 363.9Z" fill="#8d8d8d" stroke="#8d8d8d"></path><path d="M239 603.3L268 600L233 561.1Z" fill="#fdfdfd" stroke="#fdfdfd"></path><path d="M239 603.3L251 608.3L268 600Z" fill="#a2a2a2" stroke="#a2a2a2"></path><path d="M268 600L251 608.3L317 600Z" fill="#8d8d8d" stroke="#8d8d8d"></path><path d="M169 43.9L172 122.4L187 115.6Z" fill="#2c2c2c" stroke="#2c2c2c"></path><path d="M187 115.6L172 122.4L197 138.4Z" fill="#8d8d8d" stroke="#8d8d8d"></path><path d="M808 321.9L817 297.3L794 292Z" fill="#b8b8b8" stroke="#b8b8b8"></path><path d="M787 265.4L804 219.6L727 226Z" fill="#e6e6e6" stroke="#e6e6e6"></path><path d="M823 293L804 219.6L787 265.4Z" fill="#a2a2a2" stroke="#a2a2a2"></path><path d="M212 610.1L239 603.3L233 561.1Z" fill="#8d8d8d" stroke="#8d8d8d"></path><path d="M118 395.9L123 440.7L189 462.7Z" fill="#646464" stroke="#646464"></path><path d="M162 479.1L149 522.6L192 469.6Z" fill="#787878" stroke="#787878"></path><path d="M844 331.1L823 293L817 297.3Z" fill="#cfcfcf" stroke="#cfcfcf"></path><path d="M817 297.3L823 293L794 292Z" fill="#fdfdfd" stroke="#fdfdfd"></path><path d="M844 331.1L817 297.3L808 321.9Z" fill="#a2a2a2" stroke="#a2a2a2"></path><path d="M701 82.4L659 17.9L662 75.7Z" fill="#3e3e3e" stroke="#3e3e3e"></path><path d="M619 17.9L659 17.9L591 0Z" fill="#e6e6e6" stroke="#e6e6e6"></path><path d="M710 0L659 17.9L701 82.4Z" fill="#3e3e3e" stroke="#3e3e3e"></path><path d="M742 600L794 481.6L682 536.4Z" fill="#515151" stroke="#515151"></path><path d="M841 443.7L834 375.7L782 365Z" fill="#cfcfcf" stroke="#cfcfcf"></path><path d="M742 600L682 536.4L690 566.4Z" fill="#a2a2a2" stroke="#a2a2a2"></path><path d="M112 471.6L149 522.6L162 479.1Z" fill="#515151" stroke="#515151"></path><path d="M841 443.7L782 365L753 441.9Z" fill="#515151" stroke="#515151"></path><path d="M507 0L439 -49.1L492 0Z" fill="#3e3e3e" stroke="#3e3e3e"></path><path d="M492 0L439 -49.1L464 4.9Z" fill="#b8b8b8" stroke="#b8b8b8"></path><path d="M417 0L439 -49.1L383 21.7Z" fill="#a2a2a2" stroke="#a2a2a2"></path><path d="M518 0L439 -49.1L507 0Z" fill="#e6e6e6" stroke="#e6e6e6"></path><path d="M525 0L439 -49.1L518 0Z" fill="#fdfdfd" stroke="#fdfdfd"></path><path d="M591 0L439 -49.1L525 0Z" fill="#646464" stroke="#646464"></path><path d="M717 -41.1L439 -49.1L591 0Z" fill="#3e3e3e" stroke="#3e3e3e"></path><path d="M257 -42.1L272 0L266 -52.1Z" fill="#e6e6e6" stroke="#e6e6e6"></path><path d="M819 185.3L803 161.7L804 219.6Z" fill="#a2a2a2" stroke="#a2a2a2"></path><path d="M804 219.6L803 161.7L719 180.1Z" fill="#a2a2a2" stroke="#a2a2a2"></path><path d="M272 0L229 28.7L286 77.9Z" fill="#b8b8b8" stroke="#b8b8b8"></path><path d="M688 630.1L723 600L667 600Z" fill="#fdfdfd" stroke="#fdfdfd"></path><path d="M667 600L723 600L690 566.4Z" fill="#515151" stroke="#515151"></path><path d="M414 644.1L688 630.1L602 603.1Z" fill="#2c2c2c" stroke="#2c2c2c"></path><path d="M179 600L212 610.1L233 561.1Z" fill="#fdfdfd" stroke="#fdfdfd"></path><path d="M239 603.3L212 610.1L251 608.3Z" fill="#b8b8b8" stroke="#b8b8b8"></path><path d="M251 608.3L212 610.1L414 644.1Z" fill="#b8b8b8" stroke="#b8b8b8"></path><path d="M123 440.7L112 471.6L162 479.1Z" fill="#fdfdfd" stroke="#fdfdfd"></path><path d="M149 522.6L179 600L233 561.1Z" fill="#787878" stroke="#787878"></path><path d="M97 471.3L112 471.6L86 458.1Z" fill="#3e3e3e" stroke="#3e3e3e"></path><path d="M112 471.6L123 440.7L86 458.1Z" fill="#b8b8b8" stroke="#b8b8b8"></path><path d="M834 375.7L844 331.1L808 321.9Z" fill="#e6e6e6" stroke="#e6e6e6"></path><path d="M842 164.6L819 185.3L931 262.3Z" fill="#e6e6e6" stroke="#e6e6e6"></path><path d="M82 288.9L125 311.7L128 304Z" fill="#3e3e3e" stroke="#3e3e3e"></path><path d="M115 364L39 420.4L118 395.9Z" fill="#a2a2a2" stroke="#a2a2a2"></path><path d="M82 288.9L128 304L73 251.3Z" fill="#515151" stroke="#515151"></path><path d="M128 304L141 219L73 251.3Z" fill="#646464" stroke="#646464"></path><path d="M819 185.3L804 219.6L931 262.3Z" fill="#a2a2a2" stroke="#a2a2a2"></path><path d="M73 251.3L141 219L69 142.3Z" fill="#8d8d8d" stroke="#8d8d8d"></path><path d="M831 486.4L819 471.7L794 481.6Z" fill="#2c2c2c" stroke="#2c2c2c"></path><path d="M794 481.6L819 471.7L753 441.9Z" fill="#8d8d8d" stroke="#8d8d8d"></path><path d="M900 332L900 330.9L844 331.1Z" fill="#e6e6e6" stroke="#e6e6e6"></path><path d="M860 139.4L779 98.4L803 161.7Z" fill="#a2a2a2" stroke="#a2a2a2"></path><path d="M803 161.7L779 98.4L713 143.4Z" fill="#515151" stroke="#515151"></path><path d="M688 630.1L742 600L723 600Z" fill="#8d8d8d" stroke="#8d8d8d"></path><path d="M723 600L742 600L690 566.4Z" fill="#2c2c2c" stroke="#2c2c2c"></path><path d="M86 458.1L123 440.7L118 395.9Z" fill="#e6e6e6" stroke="#e6e6e6"></path><path d="M112 471.6L124 530.4L149 522.6Z" fill="#787878" stroke="#787878"></path><path d="M172 600L179 600L149 522.6Z" fill="#515151" stroke="#515151"></path><path d="M831 486.4L841 443.7L819 471.7Z" fill="#515151" stroke="#515151"></path><path d="M819 471.7L841 443.7L753 441.9Z" fill="#787878" stroke="#787878"></path><path d="M97 471.3L124 530.4L112 471.6Z" fill="#cfcfcf" stroke="#cfcfcf"></path><path d="M97 131.4L141 219L160 150.7Z" fill="#515151" stroke="#515151"></path><path d="M82 288.9L62 328.7L81 333.6Z" fill="#b8b8b8" stroke="#b8b8b8"></path><path d="M97 131.4L160 150.7L172 122.4Z" fill="#2c2c2c" stroke="#2c2c2c"></path><path d="M272 0L232 0L229 28.7Z" fill="#515151" stroke="#515151"></path><path d="M229 28.7L169 43.9L187 115.6Z" fill="#fdfdfd" stroke="#fdfdfd"></path><path d="M257 -42.1L232 0L272 0Z" fill="#515151" stroke="#515151"></path><path d="M39 420.4L86 458.1L118 395.9Z" fill="#8d8d8d" stroke="#8d8d8d"></path><path d="M85 600L103 600L124 530.4Z" fill="#787878" stroke="#787878"></path><path d="M39 420.4L115 364L81 333.6Z" fill="#a2a2a2" stroke="#a2a2a2"></path><path d="M124 530.4L172 600L149 522.6Z" fill="#2c2c2c" stroke="#2c2c2c"></path><path d="M179 600L172 600L212 610.1Z" fill="#fdfdfd" stroke="#fdfdfd"></path><path d="M40 280.1L62 328.7L82 288.9Z" fill="#cfcfcf" stroke="#cfcfcf"></path><path d="M799 592.3L831 486.4L794 481.6Z" fill="#515151" stroke="#515151"></path><path d="M212 0L224 0L257 -42.1Z" fill="#2c2c2c" stroke="#2c2c2c"></path><path d="M232 0L224 0L229 28.7Z" fill="#515151" stroke="#515151"></path><path d="M200 -2.3L169 43.9L229 28.7Z" fill="#e6e6e6" stroke="#e6e6e6"></path><path d="M721 0L710 0L701 82.4Z" fill="#b8b8b8" stroke="#b8b8b8"></path><path d="M659 17.9L717 -41.1L591 0Z" fill="#8d8d8d" stroke="#8d8d8d"></path><path d="M200 -2.3L212 0L176 -43.1Z" fill="#3e3e3e" stroke="#3e3e3e"></path><path d="M224 0L212 0L229 28.7Z" fill="#e6e6e6" stroke="#e6e6e6"></path><path d="M819 185.3L842 164.6L803 161.7Z" fill="#787878" stroke="#787878"></path><path d="M757 27.7L721 0L701 82.4Z" fill="#cfcfcf" stroke="#cfcfcf"></path><path d="M931 262.3L804 219.6L823 293Z" fill="#515151" stroke="#515151"></path><path d="M120 66.6L97 131.4L172 122.4Z" fill="#e6e6e6" stroke="#e6e6e6"></path><path d="M757 27.7L701 82.4L779 98.4Z" fill="#3e3e3e" stroke="#3e3e3e"></path><path d="M710 0L717 -41.1L659 17.9Z" fill="#2c2c2c" stroke="#2c2c2c"></path><path d="M772 -5.3L805 0L793 -8.1Z" fill="#a2a2a2" stroke="#a2a2a2"></path><path d="M212 0L200 -2.3L229 28.7Z" fill="#3e3e3e" stroke="#3e3e3e"></path><path d="M169 43.9L120 66.6L172 122.4Z" fill="#3e3e3e" stroke="#3e3e3e"></path><path d="M257 -42.1L224 0L232 0Z" fill="#787878" stroke="#787878"></path><path d="M688 630.1L781 600L742 600Z" fill="#cfcfcf" stroke="#cfcfcf"></path><path d="M742 600L781 600L794 481.6Z" fill="#b8b8b8" stroke="#b8b8b8"></path><path d="M266 -52.1L272 0L383 21.7Z" fill="#3e3e3e" stroke="#3e3e3e"></path><path d="M439 -49.1L266 -52.1L383 21.7Z" fill="#b8b8b8" stroke="#b8b8b8"></path><path d="M176 -43.1L176 0L200 -2.3Z" fill="#a2a2a2" stroke="#a2a2a2"></path><path d="M19 213L40 280.1L73 251.3Z" fill="#787878" stroke="#787878"></path><path d="M73 251.3L40 280.1L82 288.9Z" fill="#e6e6e6" stroke="#e6e6e6"></path><path d="M62 328.7L39 420.4L81 333.6Z" fill="#3e3e3e" stroke="#3e3e3e"></path><path d="M130 0L120 66.6L169 43.9Z" fill="#b8b8b8" stroke="#b8b8b8"></path><path d="M97 131.4L69 142.3L141 219Z" fill="#fdfdfd" stroke="#fdfdfd"></path><path d="M781 600L799 592.3L794 481.6Z" fill="#2c2c2c" stroke="#2c2c2c"></path><path d="M130 0L176 0L176 -43.1Z" fill="#2c2c2c" stroke="#2c2c2c"></path><path d="M200 -2.3L176 0L169 43.9Z" fill="#515151" stroke="#515151"></path><path d="M58 116.9L69 142.3L97 131.4Z" fill="#e6e6e6" stroke="#e6e6e6"></path><path d="M0 378.4L39 420.4L62 328.7Z" fill="#b8b8b8" stroke="#b8b8b8"></path><path d="M85 600L124 530.4L47 577.3Z" fill="#8d8d8d" stroke="#8d8d8d"></path><path d="M124 530.4L103 600L172 600Z" fill="#646464" stroke="#646464"></path><path d="M900 332L844 331.1L900 334.1Z" fill="#787878" stroke="#787878"></path><path d="M844 331.1L900 330.9L823 293Z" fill="#a2a2a2" stroke="#a2a2a2"></path><path d="M844 331.1L834 375.7L900 334.1Z" fill="#fdfdfd" stroke="#fdfdfd"></path><path d="M834 375.7L900 428.7L900 334.1Z" fill="#646464" stroke="#646464"></path><path d="M834 375.7L841 443.7L900 428.7Z" fill="#8d8d8d" stroke="#8d8d8d"></path><path d="M878 484.4L841 443.7L831 486.4Z" fill="#787878" stroke="#787878"></path><path d="M772 -5.3L721 0L757 27.7Z" fill="#515151" stroke="#515151"></path><path d="M772 -5.3L732 -20.1L721 0Z" fill="#e6e6e6" stroke="#e6e6e6"></path><path d="M721 0L732 -20.1L710 0Z" fill="#787878" stroke="#787878"></path><path d="M900 149.6L860 139.4L842 164.6Z" fill="#2c2c2c" stroke="#2c2c2c"></path><path d="M842 164.6L860 139.4L803 161.7Z" fill="#515151" stroke="#515151"></path><path d="M688 630.1L803 605.3L781 600Z" fill="#cfcfcf" stroke="#cfcfcf"></path><path d="M781 600L803 605.3L799 592.3Z" fill="#fdfdfd" stroke="#fdfdfd"></path><path d="M873 504.3L878 484.4L831 486.4Z" fill="#787878" stroke="#787878"></path><path d="M873 504.3L831 486.4L799 592.3Z" fill="#cfcfcf" stroke="#cfcfcf"></path><path d="M772 -5.3L717 -41.1L732 -20.1Z" fill="#e6e6e6" stroke="#e6e6e6"></path><path d="M732 -20.1L717 -41.1L710 0Z" fill="#a2a2a2" stroke="#a2a2a2"></path><path d="M860 600L873 504.3L799 592.3Z" fill="#8d8d8d" stroke="#8d8d8d"></path><path d="M901 441.6L841 443.7L900 452.3Z" fill="#e6e6e6" stroke="#e6e6e6"></path><path d="M901 441.6L900 428.7L841 443.7Z" fill="#a2a2a2" stroke="#a2a2a2"></path><path d="M837 61.6L757 27.7L779 98.4Z" fill="#646464" stroke="#646464"></path><path d="M124 530.4L97 471.3L47 577.3Z" fill="#515151" stroke="#515151"></path><path d="M172 600L99 622.1L212 610.1Z" fill="#515151" stroke="#515151"></path><path d="M212 610.1L99 622.1L414 644.1Z" fill="#787878" stroke="#787878"></path><path d="M900 452.3L841 443.7L878 484.4Z" fill="#cfcfcf" stroke="#cfcfcf"></path><path d="M900 428.7L924 317.1L900 334.1Z" fill="#e6e6e6" stroke="#e6e6e6"></path><path d="M900 334.1L924 317.1L900 332Z" fill="#b8b8b8" stroke="#b8b8b8"></path><path d="M900 332L924 317.1L900 330.9Z" fill="#3e3e3e" stroke="#3e3e3e"></path><path d="M923 496.3L900 452.3L878 484.4Z" fill="#3e3e3e" stroke="#3e3e3e"></path><path d="M37 108.6L58 116.9L55 72.4Z" fill="#8d8d8d" stroke="#8d8d8d"></path><path d="M55 72.4L58 116.9L97 131.4Z" fill="#e6e6e6" stroke="#e6e6e6"></path><path d="M69 142.3L35 166.7L73 251.3Z" fill="#8d8d8d" stroke="#8d8d8d"></path><path d="M58 116.9L35 166.7L69 142.3Z" fill="#b8b8b8" stroke="#b8b8b8"></path><path d="M40 280.1L0 313.1L62 328.7Z" fill="#b8b8b8" stroke="#b8b8b8"></path><path d="M860 139.4L837 61.6L779 98.4Z" fill="#fdfdfd" stroke="#fdfdfd"></path><path d="M35 166.7L19 213L73 251.3Z" fill="#787878" stroke="#787878"></path><path d="M923 496.3L900 428.7L901 441.6Z" fill="#787878" stroke="#787878"></path><path d="M923 496.3L924 317.1L900 428.7Z" fill="#8d8d8d" stroke="#8d8d8d"></path><path d="M900 330.9L931 262.3L823 293Z" fill="#b8b8b8" stroke="#b8b8b8"></path><path d="M860 139.4L900 91.7L837 61.6Z" fill="#e6e6e6" stroke="#e6e6e6"></path><path d="M0 304.9L0 313.1L40 280.1Z" fill="#e6e6e6" stroke="#e6e6e6"></path><path d="M47 577.3L97 471.3L-1 557.4Z" fill="#2c2c2c" stroke="#2c2c2c"></path><path d="M0 261.3L0 304.9L40 280.1Z" fill="#8d8d8d" stroke="#8d8d8d"></path><path d="M176 -43.1L212 0L257 -42.1Z" fill="#e6e6e6" stroke="#e6e6e6"></path><path d="M176 0L130 0L169 43.9Z" fill="#e6e6e6" stroke="#e6e6e6"></path><path d="M0 313.1L0 378.4L62 328.7Z" fill="#e6e6e6" stroke="#e6e6e6"></path><path d="M266 -52.1L176 -43.1L257 -42.1Z" fill="#b8b8b8" stroke="#b8b8b8"></path><path d="M0 378.4L0 383.6L39 420.4Z" fill="#e6e6e6" stroke="#e6e6e6"></path><path d="M0 248L40 280.1L19 213Z" fill="#2c2c2c" stroke="#2c2c2c"></path><path d="M0 248L0 261.3L40 280.1Z" fill="#a2a2a2" stroke="#a2a2a2"></path><path d="M0 450.7L86 458.1L39 420.4Z" fill="#3e3e3e" stroke="#3e3e3e"></path><path d="M103 600L99 622.1L172 600Z" fill="#b8b8b8" stroke="#b8b8b8"></path><path d="M805 0L772 -5.3L757 27.7Z" fill="#e6e6e6" stroke="#e6e6e6"></path><path d="M772 -5.3L793 -8.1L717 -41.1Z" fill="#787878" stroke="#787878"></path><path d="M0 219.1L0 248L19 213Z" fill="#cfcfcf" stroke="#cfcfcf"></path><path d="M85 600L99 622.1L103 600Z" fill="#e6e6e6" stroke="#e6e6e6"></path><path d="M931 262.3L900 149.6L842 164.6Z" fill="#b8b8b8" stroke="#b8b8b8"></path><path d="M837 61.6L805 0L757 27.7Z" fill="#fdfdfd" stroke="#fdfdfd"></path><path d="M815 -14.3L805 0L876 0Z" fill="#a2a2a2" stroke="#a2a2a2"></path><path d="M924 317.1L931 262.3L900 330.9Z" fill="#8d8d8d" stroke="#8d8d8d"></path><path d="M873 504.3L900 507.6L878 484.4Z" fill="#515151" stroke="#515151"></path><path d="M900 452.3L923 496.3L901 441.6Z" fill="#515151" stroke="#515151"></path><path d="M924 317.1L950 603.1L931 262.3Z" fill="#8d8d8d" stroke="#8d8d8d"></path><path d="M900 531.4L900 507.6L873 504.3Z" fill="#646464" stroke="#646464"></path><path d="M0 190.4L0 219.1L19 213Z" fill="#2c2c2c" stroke="#2c2c2c"></path><path d="M0 190.4L19 213L35 166.7Z" fill="#8d8d8d" stroke="#8d8d8d"></path><path d="M55 72.4L97 131.4L120 66.6Z" fill="#cfcfcf" stroke="#cfcfcf"></path><path d="M58 116.9L37 108.6L35 166.7Z" fill="#3e3e3e" stroke="#3e3e3e"></path><path d="M927 127.7L900 127.3L900 149.6Z" fill="#fdfdfd" stroke="#fdfdfd"></path><path d="M900 149.6L900 127.3L860 139.4Z" fill="#2c2c2c" stroke="#2c2c2c"></path><path d="M55 34.9L55 72.4L120 66.6Z" fill="#8d8d8d" stroke="#8d8d8d"></path><path d="M0 383.6L0 450.7L39 420.4Z" fill="#a2a2a2" stroke="#a2a2a2"></path><path d="M0 183.7L0 190.4L35 166.7Z" fill="#787878" stroke="#787878"></path><path d="M927 127.7L900 118.9L900 127.3Z" fill="#2c2c2c" stroke="#2c2c2c"></path><path d="M900 127.3L900 118.9L860 139.4Z" fill="#646464" stroke="#646464"></path><path d="M803 605.3L860 600L799 592.3Z" fill="#515151" stroke="#515151"></path><path d="M864 600L860 600L852 632.1Z" fill="#515151" stroke="#515151"></path><path d="M860 600L900 531.4L873 504.3Z" fill="#e6e6e6" stroke="#e6e6e6"></path><path d="M900 507.6L923 496.3L878 484.4Z" fill="#787878" stroke="#787878"></path><path d="M-4 156.4L0 183.7L35 166.7Z" fill="#e6e6e6" stroke="#e6e6e6"></path><path d="M852 632.1L860 600L803 605.3Z" fill="#515151" stroke="#515151"></path><path d="M860 600L864 600L900 531.4Z" fill="#515151" stroke="#515151"></path><path d="M-1 557.4L97 471.3L86 458.1Z" fill="#a2a2a2" stroke="#a2a2a2"></path><path d="M85 600L69 612.3L99 622.1Z" fill="#2c2c2c" stroke="#2c2c2c"></path><path d="M47 577.3L69 612.3L85 600Z" fill="#a2a2a2" stroke="#a2a2a2"></path><path d="M876 0L805 0L837 61.6Z" fill="#8d8d8d" stroke="#8d8d8d"></path><path d="M805 0L815 -14.3L793 -8.1Z" fill="#fdfdfd" stroke="#fdfdfd"></path><path d="M793 -8.1L815 -14.3L717 -41.1Z" fill="#8d8d8d" stroke="#8d8d8d"></path><path d="M927 127.7L900 104.4L900 118.9Z" fill="#cfcfcf" stroke="#cfcfcf"></path><path d="M900 118.9L900 104.4L860 139.4Z" fill="#a2a2a2" stroke="#a2a2a2"></path><path d="M950 603.1L923 496.3L900 531.4Z" fill="#b8b8b8" stroke="#b8b8b8"></path><path d="M900 531.4L923 496.3L900 507.6Z" fill="#2c2c2c" stroke="#2c2c2c"></path><path d="M927 127.7L900 91.7L900 104.4Z" fill="#3e3e3e" stroke="#3e3e3e"></path><path d="M900 104.4L900 91.7L860 139.4Z" fill="#a2a2a2" stroke="#a2a2a2"></path><path d="M688 630.1L852 632.1L803 605.3Z" fill="#fdfdfd" stroke="#fdfdfd"></path><path d="M864 600L900 589.1L900 531.4Z" fill="#2c2c2c" stroke="#2c2c2c"></path><path d="M414 644.1L852 632.1L688 630.1Z" fill="#515151" stroke="#515151"></path><path d="M0 91.6L-4 156.4L37 108.6Z" fill="#2c2c2c" stroke="#2c2c2c"></path><path d="M37 108.6L-4 156.4L35 166.7Z" fill="#515151" stroke="#515151"></path><path d="M0 183.7L-33 158.3L0 190.4Z" fill="#3e3e3e" stroke="#3e3e3e"></path><path d="M0 190.4L-33 158.3L0 219.1Z" fill="#b8b8b8" stroke="#b8b8b8"></path><path d="M-33 158.3L0 261.3L0 248Z" fill="#a2a2a2" stroke="#a2a2a2"></path><path d="M-33 158.3L-40 413.9L0 261.3Z" fill="#e6e6e6" stroke="#e6e6e6"></path><path d="M0 261.3L-40 413.9L0 304.9Z" fill="#646464" stroke="#646464"></path><path d="M0 304.9L-40 413.9L0 313.1Z" fill="#e6e6e6" stroke="#e6e6e6"></path><path d="M0 313.1L-40 413.9L0 378.4Z" fill="#a2a2a2" stroke="#a2a2a2"></path><path d="M0 378.4L-40 413.9L0 383.6Z" fill="#a2a2a2" stroke="#a2a2a2"></path><path d="M0 383.6L-40 413.9L0 450.7Z" fill="#b8b8b8" stroke="#b8b8b8"></path><path d="M79 0L55 34.9L120 66.6Z" fill="#3e3e3e" stroke="#3e3e3e"></path><path d="M55 72.4L0 91.6L37 108.6Z" fill="#3e3e3e" stroke="#3e3e3e"></path><path d="M79 0L120 66.6L130 0Z" fill="#e6e6e6" stroke="#e6e6e6"></path><path d="M176 -43.1L79 0L130 0Z" fill="#3e3e3e" stroke="#3e3e3e"></path><path d="M948 156.4L927 127.7L900 149.6Z" fill="#3e3e3e" stroke="#3e3e3e"></path><path d="M31 600L49 619.1L47 577.3Z" fill="#787878" stroke="#787878"></path><path d="M47 577.3L49 619.1L69 612.3Z" fill="#515151" stroke="#515151"></path><path d="M69 612.3L49 619.1L99 622.1Z" fill="#2c2c2c" stroke="#2c2c2c"></path><path d="M99 622.1L0 625.1L414 644.1Z" fill="#787878" stroke="#787878"></path><path d="M900 600L900 589.1L864 600Z" fill="#cfcfcf" stroke="#cfcfcf"></path><path d="M-33 158.3L0 248L0 219.1Z" fill="#2c2c2c" stroke="#2c2c2c"></path><path d="M0 581.3L31 600L47 577.3Z" fill="#515151" stroke="#515151"></path><path d="M-1 557.4L86 458.1L0 450.7Z" fill="#fdfdfd" stroke="#fdfdfd"></path><path d="M931 262.3L948 156.4L900 149.6Z" fill="#3e3e3e" stroke="#3e3e3e"></path><path d="M950 603.1L948 156.4L931 262.3Z" fill="#3e3e3e" stroke="#3e3e3e"></path><path d="M900 589.1L950 603.1L900 531.4Z" fill="#2c2c2c" stroke="#2c2c2c"></path><path d="M852 632.1L900 600L864 600Z" fill="#e6e6e6" stroke="#e6e6e6"></path><path d="M0 41.9L0 91.6L55 72.4Z" fill="#cfcfcf" stroke="#cfcfcf"></path><path d="M-4 156.4L-33 158.3L0 183.7Z" fill="#3e3e3e" stroke="#3e3e3e"></path><path d="M0 41.9L55 72.4L55 34.9Z" fill="#515151" stroke="#515151"></path><path d="M-40 413.9L-1 557.4L0 450.7Z" fill="#787878" stroke="#787878"></path><path d="M0 91.6L-33 158.3L-4 156.4Z" fill="#a2a2a2" stroke="#a2a2a2"></path><path d="M837 61.6L900 91.7L902 11.9Z" fill="#646464" stroke="#646464"></path><path d="M893 0L876 0L902 11.9Z" fill="#cfcfcf" stroke="#cfcfcf"></path><path d="M902 11.9L876 0L837 61.6Z" fill="#2c2c2c" stroke="#2c2c2c"></path><path d="M815 -14.3L900 0L717 -41.1Z" fill="#b8b8b8" stroke="#b8b8b8"></path><path d="M-40 413.9L0 581.3L-1 557.4Z" fill="#646464" stroke="#646464"></path><path d="M-1 557.4L0 581.3L47 577.3Z" fill="#787878" stroke="#787878"></path><path d="M31 600L0 625.1L49 619.1Z" fill="#515151" stroke="#515151"></path><path d="M79 0L30 15.7L55 34.9Z" fill="#3e3e3e" stroke="#3e3e3e"></path><path d="M0 91.6L-9 53.7L-33 158.3Z" fill="#787878" stroke="#787878"></path><path d="M22 0L30 15.7L79 0Z" fill="#8d8d8d" stroke="#8d8d8d"></path><path d="M-40 413.9L0 600L0 581.3Z" fill="#b8b8b8" stroke="#b8b8b8"></path><path d="M0 581.3L0 600L31 600Z" fill="#515151" stroke="#515151"></path><path d="M902 11.9L900 91.7L927 127.7Z" fill="#cfcfcf" stroke="#cfcfcf"></path><path d="M876 0L893 0L815 -14.3Z" fill="#515151" stroke="#515151"></path><path d="M948 156.4L902 11.9L927 127.7Z" fill="#fdfdfd" stroke="#fdfdfd"></path><path d="M30 15.7L0 41.9L55 34.9Z" fill="#a2a2a2" stroke="#a2a2a2"></path><path d="M0 41.9L-9 53.7L0 91.6Z" fill="#b8b8b8" stroke="#b8b8b8"></path><path d="M948 156.4L900 0L902 11.9Z" fill="#fdfdfd" stroke="#fdfdfd"></path><path d="M902 11.9L900 0L893 0Z" fill="#8d8d8d" stroke="#8d8d8d"></path><path d="M893 0L900 0L815 -14.3Z" fill="#787878" stroke="#787878"></path><path d="M30 15.7L0 0L0 41.9Z" fill="#e6e6e6" stroke="#e6e6e6"></path><path d="M0 41.9L0 0L-9 53.7Z" fill="#cfcfcf" stroke="#cfcfcf"></path><path d="M176 -43.1L22 0L79 0Z" fill="#a2a2a2" stroke="#a2a2a2"></path><path d="M-40 413.9L0 625.1L0 600Z" fill="#e6e6e6" stroke="#e6e6e6"></path><path d="M0 600L0 625.1L31 600Z" fill="#e6e6e6" stroke="#e6e6e6"></path><path d="M49 619.1L0 625.1L99 622.1Z" fill="#515151" stroke="#515151"></path><path d="M852 632.1L950 603.1L900 600Z" fill="#646464" stroke="#646464"></path><path d="M900 600L950 603.1L900 589.1Z" fill="#2c2c2c" stroke="#2c2c2c"></path><path d="M923 496.3L950 603.1L924 317.1Z" fill="#a2a2a2" stroke="#a2a2a2"></path><path d="M176 -43.1L0 0L22 0Z" fill="#2c2c2c" stroke="#2c2c2c"></path><path d="M22 0L0 0L30 15.7Z" fill="#cfcfcf" stroke="#cfcfcf"></path><path d="M-9 53.7L0 0L-33 158.3Z" fill="#a2a2a2" stroke="#a2a2a2"></path></g></svg>